M48
;Layer_Color=9474304
;FILE_FORMAT=4:4
METRIC,LZ
;TYPE=PLATED
T01F00S00C0.6600
T02F00S00C0.7000
T03F00S00C0.7100
T04F00S00C0.7112
T05F00S00C0.7500
T06F00S00C0.7700
T07F00S00C0.8900
T08F00S00C1.0200
%
T01
X00262248Y00034283
X00403384Y00138462
X00069955Y00333731
T02
X00182195Y00320115
Y00345515
Y00370915
T03
X00358282Y00134943
Y00160343
T04
X00023114Y00116078
T05
X00176022Y00068472
Y00118472
Y0022891
Y0027891
T06
X00226822Y00126492
X00316992
Y00151892
Y00177292
Y00202692
Y00228092
Y00253492
Y00278892
X00226822
Y00253492
Y00228092
Y00202692
Y00177292
Y00151892
T07
X00109713Y00033883
Y00141983
X00336056Y00077635
Y00021755
X00444156
Y00077635
X00359032Y00210108
Y00318208
X0020401Y00190485
X0009591
X00069531Y00174706
X00025081
Y00282806
X00069531
X00109713Y00270103
Y00378203
T08
X0007059Y00051256
Y00076656
Y00102056
M30
