G04*
G04 #@! TF.GenerationSoftware,Altium Limited,Altium Designer,24.7.2 (38)*
G04*
G04 Layer_Color=16711935*
%FSLAX44Y44*%
%MOMM*%
G71*
G04*
G04 #@! TF.SameCoordinates,DA7644E0-93A3-41EC-BC17-E7A0BFE8D910*
G04*
G04*
G04 #@! TF.FilePolarity,Positive*
G04*
G01*
G75*
%ADD11C,0.1270*%
D11*
X462793Y406400D02*
G03*
X462773Y406559I-635J0D01*
G01*
X444506Y425073D02*
G03*
X444500Y425073I-6J-18161D01*
G01*
X462661Y406993D02*
G03*
X444506Y425073I-18161J-81D01*
G01*
X462793Y406400D02*
G03*
X462773Y406559I-635J0D01*
G01*
X444506Y425073D02*
G03*
X444500Y425073I-6J-635D01*
G01*
X462793Y13710D02*
G03*
X462793Y13716I-635J6D01*
G01*
X462793Y13710D02*
G03*
X462793Y13716I-15621J6D01*
G01*
X447172Y-1905D02*
G03*
X462793Y13710I0J15621D01*
G01*
X446532Y-1909D02*
G03*
X446536Y-1909I0J635D01*
G01*
X446532Y-1909D02*
G03*
X446540Y-1909I0J635D01*
G01*
X7366Y425073D02*
G03*
X7292Y425069I0J-635D01*
G01*
X7366Y425073D02*
G03*
X7292Y425069I0J-635D01*
G01*
D02*
G03*
X-1909Y415798I70J-9271D01*
G01*
X10916Y-1909D02*
G03*
X10922Y-1909I6J12827D01*
G01*
X-1905Y10912D02*
G03*
X10916Y-1909I12827J6D01*
G01*
X-1905Y10913D02*
Y10912D01*
Y10918D02*
G03*
X-1905Y10913I12827J0D01*
G01*
X10916Y-1909D02*
G03*
X10922Y-1909I6J635D01*
G01*
X-1909Y11430D02*
G03*
X-1909Y11425I635J0D01*
G01*
X-1905Y10913D02*
G03*
X-1905Y10912I635J5D01*
G01*
X-1909Y11430D02*
G03*
X-1909Y11422I635J0D01*
G01*
X462661Y406993D02*
X462773Y406559D01*
X462793Y13716D02*
Y406400D01*
X447172Y-1905D02*
X447176Y-1905D01*
X446540Y-1909D02*
X447172Y-1905D01*
X446536Y-1909D02*
X446540Y-1909D01*
X10922Y-1909D02*
X446532D01*
X7366Y425073D02*
X444500D01*
X-1909Y11430D02*
Y415798D01*
X-1909Y11425D02*
X-1909Y11422D01*
X-1905Y10913D01*
Y10913D02*
Y10913D01*
M02*
